<?xml version="1.0" encoding="UTF-8"?>
<svg xmlns="http://www.w3.org/2000/svg" xmlns:xlink="http://www.w3.org/1999/xlink" width="48pt" height="48pt" viewBox="0 0 48 48" version="1.1">
<g id="surface1499305">
<path style=" stroke:none;fill-rule:nonzero;fill:rgb(100%,100%,100%);fill-opacity:1;" d="M 20 28 L 20 23 C 20 20.792969 21.792969 19 24 19 C 26.207031 19 28 20.792969 28 23 L 28 28 L 33 28 L 33 23 C 33 18.050781 28.949219 14 24 14 C 19.050781 14 15 18.050781 15 23 L 15 28 Z M 20 28 "/>
<path style=" stroke:none;fill-rule:nonzero;fill:rgb(100%,100%,100%);fill-opacity:1;" d="M 35 45 L 13 45 C 11.898438 45 11 44.101562 11 43 L 11 29 C 11 27.898438 11.898438 27 13 27 L 35 27 C 36.101562 27 37 27.898438 37 29 L 37 43 C 37 44.101562 36.101562 45 35 45 Z M 35 45 "/>
<path style=" stroke:none;fill-rule:nonzero;fill:rgb(100%,100%,100%);fill-opacity:1;" d="M 24 33 C 22.894531 33 22 33.894531 22 35 C 22 35.738281 22.40625 36.375 23 36.722656 L 23 39 C 23 39.550781 23.449219 40 24 40 C 24.550781 40 25 39.550781 25 39 L 25 36.722656 C 25.59375 36.378906 26 35.738281 26 35 C 26 33.894531 25.105469 33 24 33 Z M 24 33 "/>
<path style=" stroke:none;fill-rule:nonzero;fill:rgb(100%,100%,100%);fill-opacity:1;" d="M 24 3 C 22.898438 3 22 3.898438 22 5 L 22 9 C 22 10.101562 22.898438 11 24 11 C 25.101562 11 26 10.101562 26 9 L 26 5 C 26 3.898438 25.101562 3 24 3 Z M 13.414062 8.585938 C 13.035156 8.207031 12.535156 8 12 8 C 11.464844 8 10.960938 8.207031 10.585938 8.585938 C 10.207031 8.960938 10 9.464844 10 10 C 10 10.535156 10.207031 11.035156 10.585938 11.414062 L 13.585938 14.414062 C 13.964844 14.792969 14.464844 15 15 15 C 15.535156 15 16.039062 14.792969 16.414062 14.414062 C 16.792969 14.039062 17 13.535156 17 13 C 17 12.464844 16.792969 11.964844 16.414062 11.585938 Z M 38 10 C 38 9.464844 37.792969 8.960938 37.414062 8.585938 C 37.039062 8.207031 36.535156 8 36 8 C 35.464844 8 34.964844 8.207031 34.585938 8.585938 L 31.585938 11.585938 C 31.207031 11.964844 31 12.464844 31 13 C 31 13.535156 31.207031 14.039062 31.585938 14.414062 C 31.960938 14.792969 32.464844 15 33 15 C 33.535156 15 34.035156 14.792969 34.414062 14.414062 L 37.414062 11.414062 C 37.792969 11.035156 38 10.535156 38 10 Z M 10 20 L 6 20 C 4.898438 20 4 20.898438 4 22 C 4 23.101562 4.898438 24 6 24 L 10 24 C 11.101562 24 12 23.101562 12 22 C 12 20.898438 11.101562 20 10 20 Z M 42 20 L 38 20 C 36.898438 20 36 20.898438 36 22 C 36 23.101562 36.898438 24 38 24 L 42 24 C 43.101562 24 44 23.101562 44 22 C 44 20.898438 43.101562 20 42 20 Z M 42 20 "/>
</g>
</svg>
